<svg width="1739" height="530" viewBox="0 0 1739 530" fill="none" xmlns="http://www.w3.org/2000/svg">
<path d="M1424.98 3.25042C1343.11 16.8832 1266.88 76.7488 1230.4 155.878C1212.6 194.109 1207.56 222.56 1209.34 275.609C1210.82 328.362 1215.27 346.144 1237.22 388.821C1262.43 438.017 1304.25 478.619 1354.98 503.514C1395.61 523.667 1412.82 527.816 1462.06 529.594C1508.63 531.372 1535.03 527.519 1569.73 513.887C1723.97 452.835 1785.67 270.868 1700.54 126.538C1673.84 80.8979 1617.19 34.6651 1564.98 15.6977C1524.94 0.879515 1468.88 -3.86233 1424.98 3.25042ZM1387.6 69.0434C1398.58 90.9743 1410.15 126.538 1410.15 138.689C1410.15 142.245 1407.48 150.84 1403.92 157.656C1399.17 167.14 1398.28 172.475 1399.77 184.033C1400.95 193.516 1403.33 198.555 1406 198.555C1412.22 198.555 1414.89 206.26 1423.2 245.38C1433.88 295.17 1433.28 301.393 1419.05 325.102C1412.52 336.068 1407.18 346.144 1407.18 347.922C1407.18 357.999 1403.33 339.921 1392.35 279.166C1380.19 212.78 1379.89 210.113 1384.94 204.482C1390.27 198.851 1389.98 195.887 1379.3 125.056C1373.07 84.7507 1367.43 48.5942 1366.54 44.4451C1364.77 37.3324 1364.77 37.036 1370.7 42.3706C1374.26 45.3342 1381.67 57.4851 1387.6 69.0434ZM1469.47 50.6687C1469.47 56.2997 1470.96 59.2633 1473.92 59.2633C1481.93 59.2633 1496.46 74.9707 1497.06 84.4543C1497.65 93.0489 1497.06 93.3452 1483.71 94.2343C1468.29 95.1234 1463.84 100.754 1478.37 100.754C1485.19 100.754 1487.57 102.236 1489.05 108.163C1491.42 117.351 1486.08 124.464 1476.59 124.464C1462.35 124.464 1469.77 130.094 1485.19 130.984L1500.62 131.873V148.173V164.473L1485.19 165.362C1468.58 166.251 1462.95 171.882 1478.37 171.882C1486.97 171.882 1499.13 180.476 1499.13 186.7C1499.13 192.924 1486.97 201.518 1478.37 201.518C1473.62 201.518 1469.47 202.704 1469.47 204.482C1469.47 205.964 1473.62 207.446 1478.37 207.446C1486.68 207.446 1487.27 208.335 1487.27 217.818C1487.27 227.302 1486.68 228.191 1478.37 228.191H1469.77L1468.88 251.011C1468.29 265.829 1466.8 274.128 1464.43 275.017C1461.46 275.906 1460.57 269.979 1460.57 252.197V228.191H1451.67C1443.37 228.191 1442.78 227.302 1442.78 217.818C1442.78 208.335 1443.37 207.446 1451.67 207.446C1456.72 207.446 1460.57 205.964 1460.57 204.482C1460.57 202.704 1456.72 201.518 1451.67 201.518C1443.07 201.518 1430.91 192.924 1430.91 186.7C1430.91 180.476 1443.07 171.882 1451.67 171.882C1467.1 171.882 1461.46 166.251 1445.15 165.362L1429.43 164.473V148.173V131.873L1445.15 130.984C1461.46 130.094 1466.21 125.649 1452.56 123.871C1445.15 122.982 1444.26 121.796 1444.26 112.609C1444.26 103.422 1445.15 102.236 1452.56 101.347C1465.02 99.8653 1462.06 95.4198 1448.12 94.2343C1436.55 93.3452 1435.36 92.4562 1434.47 85.047C1433.28 76.1561 1447.52 59.2633 1455.83 59.2633C1459.09 59.2633 1460.57 56.5961 1460.57 50.9651C1460.57 46.2233 1461.46 41.4815 1462.35 40.5924C1465.91 37.036 1469.47 41.7778 1469.47 50.6687ZM1543.63 103.718C1542.14 114.98 1542.14 124.167 1543.63 125.649C1549.56 131.576 1554.9 124.167 1558.75 104.607C1561.72 88.3071 1562.91 85.9361 1564.69 91.8634C1565.87 96.0125 1566.76 108.163 1567.06 119.129C1567.36 137.8 1566.76 139.282 1558.16 146.098C1546.59 155.285 1540.96 175.735 1548.08 183.736C1552.53 188.775 1552.23 193.813 1542.14 249.529C1536.21 282.426 1529.98 316.211 1528.2 324.213L1525.24 338.735L1512.48 315.322L1499.43 291.91L1505.36 257.828C1515.15 201.518 1519.3 186.404 1527.31 178.995C1532.95 173.66 1534.73 169.215 1534.73 159.138C1534.73 151.136 1532.95 144.616 1530.28 142.245C1524.35 137.207 1524.64 130.687 1532.06 112.016C1535.62 103.422 1539.47 93.0489 1540.96 89.1962C1545.41 77.6379 1546.59 83.2688 1543.63 103.718ZM1480.74 328.362C1481.63 340.513 1480.15 345.552 1469.47 366.001C1454.94 393.563 1455.23 397.415 1472.14 424.384C1486.68 447.797 1491.72 463.208 1487.57 470.321C1485.79 473.581 1484.3 474.174 1484.3 471.803C1484.3 469.728 1473.92 456.985 1461.17 443.352C1427.06 407.195 1423.2 387.932 1444.85 359.481C1463.54 335.179 1466.51 328.362 1466.51 311.173V294.873L1473.03 304.653C1476.29 310.284 1479.85 320.953 1480.74 328.362ZM1499.73 405.714C1516.34 424.681 1521.08 434.757 1521.08 451.946C1521.08 468.543 1513.08 486.325 1500.91 497.587C1492.02 505.885 1491.42 503.514 1497.65 486.028C1500.02 479.212 1502.1 466.468 1502.1 457.874C1502.1 444.834 1500.32 439.499 1490.24 424.088C1475.11 400.675 1473.33 392.081 1480.45 379.041L1485.79 368.964L1486.68 380.523C1487.57 389.117 1490.83 395.933 1499.73 405.714ZM1448.71 453.132C1470.07 474.174 1473.33 480.694 1471.85 499.661L1470.96 511.219L1465.32 500.847C1462.35 495.216 1451.38 482.472 1441.29 472.692C1420.23 452.539 1414.3 438.906 1419.94 422.903L1423.2 413.419L1425.57 423.495C1427.35 429.719 1435.66 440.388 1448.71 453.132Z" fill="black"/>
<path d="M15.8026 355V173.182H87.5355C101.326 173.182 113.074 175.816 122.781 181.083C132.487 186.291 139.885 193.542 144.975 202.834C150.124 212.067 152.699 222.72 152.699 234.794C152.699 246.868 150.095 257.521 144.886 266.754C139.678 275.987 132.132 283.178 122.248 288.327C112.423 293.477 100.527 296.051 86.559 296.051H40.8381V265.245H80.3445C87.7427 265.245 93.8388 263.973 98.6328 261.428C103.486 258.823 107.096 255.243 109.464 250.685C111.89 246.069 113.104 240.772 113.104 234.794C113.104 228.757 111.89 223.49 109.464 218.991C107.096 214.434 103.486 210.913 98.6328 208.427C93.7796 205.882 87.6243 204.609 80.1669 204.609H54.2436V355H15.8026ZM176.958 355V218.636H214.777V355H176.958ZM195.956 201.058C190.334 201.058 185.51 199.194 181.485 195.465C177.52 191.677 175.537 187.15 175.537 181.882C175.537 176.674 177.52 172.205 181.485 168.477C185.51 164.689 190.334 162.795 195.956 162.795C201.579 162.795 206.373 164.689 210.338 168.477C214.363 172.205 216.375 176.674 216.375 181.882C216.375 187.15 214.363 191.677 210.338 195.465C206.373 199.194 201.579 201.058 195.956 201.058ZM282.892 276.165V355H245.073V218.636H281.117V242.695H282.715C285.733 234.764 290.794 228.491 297.896 223.874C304.998 219.199 313.61 216.861 323.73 216.861C333.2 216.861 341.457 218.932 348.5 223.075C355.543 227.218 361.017 233.137 364.924 240.831C368.83 248.466 370.783 257.58 370.783 268.175V355H332.963V274.922C333.023 266.577 330.892 260.066 326.571 255.391C322.251 250.656 316.303 248.288 308.727 248.288C303.637 248.288 299.139 249.383 295.233 251.573C291.386 253.763 288.367 256.959 286.177 261.161C284.047 265.304 282.952 270.305 282.892 276.165ZM462.203 357.663C448.235 357.663 436.22 354.704 426.159 348.786C416.156 342.808 408.462 334.522 403.076 323.928C397.749 313.333 395.086 301.141 395.086 287.351C395.086 273.383 397.779 261.132 403.165 250.597C408.61 240.002 416.334 231.746 426.336 225.827C436.338 219.85 448.235 216.861 462.025 216.861C473.921 216.861 484.338 219.021 493.275 223.342C502.212 227.662 509.285 233.729 514.493 241.541C519.701 249.354 522.572 258.527 523.105 269.062H487.416C486.41 262.256 483.746 256.781 479.426 252.638C475.164 248.436 469.571 246.335 462.646 246.335C456.787 246.335 451.668 247.933 447.288 251.129C442.967 254.266 439.594 258.853 437.167 264.89C434.74 270.927 433.527 278.236 433.527 286.818C433.527 295.518 434.711 302.917 437.078 309.013C439.505 315.109 442.908 319.755 447.288 322.951C451.668 326.147 456.787 327.745 462.646 327.745C466.967 327.745 470.844 326.857 474.276 325.082C477.768 323.306 480.639 320.732 482.888 317.358C485.196 313.925 486.705 309.812 487.416 305.018H523.105C522.513 315.434 519.672 324.608 514.582 332.539C509.551 340.411 502.597 346.566 493.719 351.005C484.841 355.444 474.336 357.663 462.203 357.663ZM585.138 276.165V355H547.319V173.182H584.073V242.695H585.671C588.749 234.646 593.72 228.343 600.586 223.786C607.451 219.169 616.063 216.861 626.42 216.861C635.89 216.861 644.147 218.932 651.19 223.075C658.292 227.159 663.796 233.048 667.702 240.742C671.668 248.377 673.621 257.521 673.562 268.175V355H635.742V274.922C635.801 266.518 633.671 259.978 629.35 255.302C625.089 250.626 619.111 248.288 611.417 248.288C606.268 248.288 601.71 249.383 597.745 251.573C593.839 253.763 590.761 256.959 588.512 261.161C586.322 265.304 585.198 270.305 585.138 276.165ZM742.21 357.575C733.509 357.575 725.756 356.065 718.95 353.047C712.143 349.969 706.758 345.442 702.792 339.464C698.886 333.427 696.933 325.91 696.933 316.914C696.933 309.338 698.324 302.976 701.105 297.827C703.887 292.678 707.675 288.535 712.469 285.398C717.263 282.261 722.708 279.893 728.804 278.295C734.959 276.697 741.411 275.573 748.158 274.922C756.089 274.093 762.481 273.324 767.334 272.614C772.187 271.844 775.709 270.72 777.899 269.24C780.088 267.76 781.183 265.571 781.183 262.67V262.138C781.183 256.515 779.408 252.165 775.857 249.087C772.365 246.01 767.393 244.471 760.942 244.471C754.136 244.471 748.72 245.98 744.695 248.999C740.671 251.958 738.008 255.687 736.705 260.185L701.727 257.344C703.502 249.058 706.994 241.896 712.203 235.859C717.411 229.763 724.128 225.088 732.355 221.832C740.641 218.518 750.229 216.861 761.119 216.861C768.695 216.861 775.945 217.749 782.87 219.524C789.854 221.3 796.039 224.052 801.425 227.781C806.87 231.509 811.161 236.303 814.298 242.163C817.435 247.963 819.003 254.917 819.003 263.026V355H783.137V336.09H782.071C779.881 340.352 776.952 344.11 773.282 347.365C769.613 350.561 765.203 353.076 760.054 354.911C754.905 356.687 748.957 357.575 742.21 357.575ZM753.041 331.474C758.604 331.474 763.517 330.379 767.778 328.189C772.039 325.94 775.383 322.921 777.81 319.134C780.236 315.346 781.45 311.055 781.45 306.261V291.79C780.266 292.559 778.638 293.269 776.567 293.92C774.555 294.512 772.276 295.075 769.731 295.607C767.186 296.081 764.641 296.525 762.096 296.939C759.551 297.294 757.243 297.62 755.171 297.915C750.732 298.567 746.856 299.602 743.541 301.023C740.227 302.443 737.652 304.367 735.818 306.793C733.983 309.161 733.066 312.12 733.066 315.671C733.066 320.82 734.93 324.756 738.659 327.479C742.446 330.142 747.24 331.474 753.041 331.474ZM909.956 357.663C896.166 357.663 884.24 354.734 874.179 348.874C864.176 342.956 856.453 334.729 851.008 324.194C845.563 313.6 842.84 301.319 842.84 287.351C842.84 273.265 845.563 260.954 851.008 250.419C856.453 239.825 864.176 231.598 874.179 225.739C884.24 219.82 896.166 216.861 909.956 216.861C923.747 216.861 935.643 219.82 945.645 225.739C955.707 231.598 963.46 239.825 968.905 250.419C974.35 260.954 977.073 273.265 977.073 287.351C977.073 301.319 974.35 313.6 968.905 324.194C963.46 334.729 955.707 342.956 945.645 348.874C935.643 354.734 923.747 357.663 909.956 357.663ZM910.134 328.366C916.408 328.366 921.646 326.591 925.848 323.04C930.05 319.429 933.216 314.517 935.347 308.303C937.537 302.088 938.632 295.015 938.632 287.085C938.632 279.154 937.537 272.081 935.347 265.866C933.216 259.652 930.05 254.74 925.848 251.129C921.646 247.519 916.408 245.714 910.134 245.714C903.801 245.714 898.474 247.519 894.154 251.129C889.893 254.74 886.667 259.652 884.477 265.866C882.346 272.081 881.281 279.154 881.281 287.085C881.281 295.015 882.346 302.088 884.477 308.303C886.667 314.517 889.893 319.429 894.154 323.04C898.474 326.591 903.801 328.366 910.134 328.366ZM1115.12 257.521L1080.5 259.652C1079.91 256.693 1078.64 254.029 1076.68 251.662C1074.73 249.235 1072.15 247.312 1068.96 245.891C1065.82 244.412 1062.06 243.672 1057.68 243.672C1051.82 243.672 1046.88 244.915 1042.86 247.401C1038.83 249.827 1036.82 253.082 1036.82 257.166C1036.82 260.421 1038.12 263.174 1040.73 265.423C1043.33 267.672 1047.8 269.477 1054.13 270.838L1078.81 275.81C1092.07 278.532 1101.95 282.912 1108.47 288.949C1114.98 294.986 1118.23 302.917 1118.23 312.741C1118.23 321.679 1115.6 329.521 1110.33 336.268C1105.12 343.015 1097.96 348.282 1088.84 352.07C1079.79 355.799 1069.34 357.663 1057.51 357.663C1039.45 357.663 1025.07 353.905 1014.36 346.388C1003.71 338.813 997.462 328.514 995.628 315.494L1032.83 313.54C1033.95 319.045 1036.67 323.247 1040.99 326.147C1045.31 328.988 1050.85 330.408 1057.59 330.408C1064.22 330.408 1069.55 329.136 1073.58 326.591C1077.66 323.987 1079.73 320.643 1079.79 316.559C1079.73 313.126 1078.28 310.315 1075.44 308.125C1072.6 305.876 1068.22 304.16 1062.3 302.976L1038.69 298.271C1025.37 295.607 1015.45 290.991 1008.94 284.421C1002.49 277.852 999.268 269.477 999.268 259.297C999.268 250.537 1001.64 242.991 1006.37 236.658C1011.16 230.326 1017.88 225.443 1026.52 222.01C1035.22 218.577 1045.4 216.861 1057.06 216.861C1074.29 216.861 1087.84 220.501 1097.72 227.781C1107.67 235.06 1113.47 244.974 1115.12 257.521Z" fill="black"/>
</svg>
